<svg xmlns="http://www.w3.org/2000/svg" width="1200" height="760" viewBox="0 0 1200 760" role="img" aria-labelledby="title desc">
  <title id="title">Design-build contractor support visual</title>
  <desc id="desc">Professional electrical engineering visual asset for PNW Electrical Engineering.</desc>
  <defs>
    <linearGradient id="bg" x1="0" y1="0" x2="1" y2="1">
      <stop offset="0" stop-color="#10243a"/>
      <stop offset="0.55" stop-color="#1f4f77"/>
      <stop offset="1" stop-color="#e7f0f7"/>
    </linearGradient>
    <linearGradient id="panel" x1="0" y1="0" x2="0" y2="1">
      <stop offset="0" stop-color="#ffffff" stop-opacity="0.97"/>
      <stop offset="1" stop-color="#dce8f2" stop-opacity="0.94"/>
    </linearGradient>
    <radialGradient id="glow" cx="0.22" cy="0.18" r="0.95">
      <stop offset="0" stop-color="#ffffff" stop-opacity="0.34"/>
      <stop offset="0.45" stop-color="#ffffff" stop-opacity="0.08"/>
      <stop offset="1" stop-color="#ffffff" stop-opacity="0"/>
    </radialGradient>
    <pattern id="grid" width="40" height="40" patternUnits="userSpaceOnUse">
      <path d="M40 0H0V40" fill="none" stroke="#ffffff" stroke-opacity="0.08" stroke-width="1"/>
    </pattern>
    <filter id="shadow" x="-20%" y="-20%" width="140%" height="140%">
      <feDropShadow dx="0" dy="18" stdDeviation="18" flood-color="#000000" flood-opacity="0.22"/>
    </filter>
  </defs>
  <rect width="1200" height="760" rx="34" fill="url(#bg)"/>
  <rect width="1200" height="760" rx="34" fill="url(#grid)"/>
  <rect width="1200" height="760" rx="34" fill="url(#glow)"/>
  
  <g filter="url(#shadow)" transform="translate(126 170)">
    <rect width="440" height="390" rx="24" fill="#ffffff" opacity="0.96"/>
    <g fill="none" stroke="#1f4f77" stroke-width="6" stroke-linecap="round"><path d="M78 86h284"/><path d="M78 132h180"/><path d="M78 178h244"/><path d="M78 246h284"/><path d="M78 292h132"/></g>
    <rect x="285" y="252" width="82" height="82" rx="10" fill="#c9902f" opacity="0.9"/>
  </g>
  <g filter="url(#shadow)" transform="translate(676.0,220) scale(1.0)">
          <rect x="0" y="0" width="112" height="300" rx="12" fill="url(#panel)" stroke="#ffffff" stroke-opacity="0.45"/>
          <rect x="16" y="24" width="80" height="34" rx="6" fill="#153752" opacity="0.88"/>
          <g stroke="#8da4b8" stroke-width="5" stroke-linecap="round">
            <path d="M23 92H89"/><path d="M23 122H89"/><path d="M23 152H89"/><path d="M23 182H89"/><path d="M23 212H89"/>
          </g>
          <circle cx="37" cy="258" r="9" fill="#c9902f"/><circle cx="72" cy="258" r="9" fill="#1f4f77"/>
        </g>
<g filter="url(#shadow)" transform="translate(821.0,220) scale(1.0)">
          <rect x="0" y="0" width="112" height="300" rx="12" fill="url(#panel)" stroke="#ffffff" stroke-opacity="0.45"/>
          <rect x="16" y="24" width="80" height="34" rx="6" fill="#153752" opacity="0.88"/>
          <g stroke="#8da4b8" stroke-width="5" stroke-linecap="round">
            <path d="M23 92H89"/><path d="M23 122H89"/><path d="M23 152H89"/><path d="M23 182H89"/><path d="M23 212H89"/>
          </g>
          <circle cx="37" cy="258" r="9" fill="#c9902f"/><circle cx="72" cy="258" r="9" fill="#1f4f77"/>
        </g>
  <g fill="none" stroke="#ffffff" stroke-width="5" stroke-linecap="round" opacity="0.55"><path d="M564 366h112"/><path d="M635 330l41 36-41 36"/></g>
  <text x="92" y="98" fill="#ffffff" font-family="Arial, sans-serif" font-size="34" font-weight="700">Design-Build Engineering Back-End</text>
  <text x="92" y="139" fill="#d9ecff" font-family="Arial, sans-serif" font-size="22">Fixed scope • fast coordination • permit-ready deliverables</text>

</svg>